<?xml version="1.0" encoding="utf-8"?>
<!-- Generator: Adobe Illustrator 27.2.0, SVG Export Plug-In . SVG Version: 6.00 Build 0)  -->
<svg version="1.1" xmlns="http://www.w3.org/2000/svg" xmlns:xlink="http://www.w3.org/1999/xlink" x="0px" y="0px"
	 viewBox="0 0 500 374.3" style="enable-background:new 0 0 500 374.3;" xml:space="preserve">
<style type="text/css">
	.st0{fill:#E6E6E6;}
	.st1{fill:#E0E0E0;}
	.st2{fill:#FAFAFA;}
	.st3{fill:#F5F5F5;}
	.st4{fill:#F0F0F0;}
	.st5{fill:#FFFFFF;}
	.st6{display:none;}
	.st7{display:inline;}
	.st8{fill:#E58A7B;}
	.st9{fill:#407BFF;}
	.st10{opacity:0.2;}
	.st11{fill:#E8ECF1;}
	.st12{fill:#263238;}
	.st13{fill:#CF6F64;}
	.st14{fill:#DF5753;}
	.st15{opacity:0.6;}
	.st16{opacity:0.4;}
	.st17{opacity:0.4;fill:#FFFFFF;}
	.st18{opacity:0.3;fill:#FFFFFF;}
</style>
<g id="Background_complete">
	<g>
		<g>
			<rect y="329.1" class="st0" width="500" height="0.2"/>
			<rect x="91.7" y="344.2" class="st0" width="33.1" height="0.2"/>
			<rect x="62" y="344.2" class="st0" width="19.2" height="0.2"/>
			<rect x="191.4" y="347.9" class="st0" width="19.2" height="0.2"/>
			<rect x="267.4" y="353.5" class="st0" width="43.2" height="0.2"/>
			<rect x="252.2" y="353.5" class="st0" width="6.3" height="0.2"/>
			<rect x="359.7" y="347.9" class="st0" width="93.7" height="0.2"/>
		</g>
		<g>
			<rect x="222.2" y="243.7" class="st1" width="22" height="87.2"/>
			<polygon class="st2" points="240,330.9 244.1,330.9 244.1,319 235.6,319 			"/>
			<rect x="125.8" y="243.7" class="st1" width="22" height="87.2"/>
			<rect x="144.1" y="243.7" class="st2" width="100" height="79.9"/>
			<path class="st1" d="M240.5,247.6v21.2h-92.7v-21.2H240.5 M240.9,247.2h-93.5v21.9h93.5V247.2L240.9,247.2z"/>
			<polygon class="st2" points="148.3,330.9 144.1,330.9 144.1,319 152.7,319 			"/>
			<path class="st0" d="M191.9,258.2c0,1.2,1,2.2,2.2,2.2c1.2,0,2.2-1,2.2-2.2c0-1.2-1-2.2-2.2-2.2C192.9,256,191.9,257,191.9,258.2
				z"/>
			<path class="st1" d="M240.5,273.1v21.2h-92.7v-21.2H240.5 M240.9,272.7h-93.5v21.9h93.5V272.7L240.9,272.7z"/>
			<path class="st0" d="M191.9,283.7c0,1.2,1,2.2,2.2,2.2c1.2,0,2.2-1,2.2-2.2c0-1.2-1-2.2-2.2-2.2
				C192.9,281.4,191.9,282.4,191.9,283.7z"/>
			<path class="st1" d="M240.5,298.5v21.2h-92.7v-21.2H240.5 M240.9,298.2h-93.5v21.9h93.5V298.2L240.9,298.2z"/>
			<path class="st0" d="M191.9,309.1c0,1.2,1,2.2,2.2,2.2c1.2,0,2.2-1,2.2-2.2c0-1.2-1-2.2-2.2-2.2
				C192.9,306.9,191.9,307.9,191.9,309.1z"/>
		</g>
		<g>
			<rect x="112.4" y="193" class="st1" width="22" height="137.9"/>
			<polygon class="st2" points="130.2,330.9 134.4,330.9 134.4,319 125.8,319 			"/>
			<rect x="30.2" y="193" class="st1" width="22" height="137.9"/>
			<rect x="48.5" y="193" class="st2" width="85.8" height="130.6"/>
			<path class="st1" d="M130.7,196.7v29.6H52.2v-29.6H130.7 M131.1,196.3H51.8v30.5h79.3V196.3L131.1,196.3z"/>
			<path class="st1" d="M130.7,229.9v78.4H93.3v-78.4H130.7 M131.1,229.4H92.8v79.3h38.3V229.4L131.1,229.4z"/>
			<path class="st1" d="M89.6,229.9v78.4H52.2v-78.4H89.6 M90,229.4H51.8v79.3H90V229.4L90,229.4z"/>
			<polygon class="st2" points="52.7,330.9 48.5,330.9 48.5,319 57.1,319 			"/>
			<path class="st0" d="M89.2,211.5c0,1.2,1,2.2,2.2,2.2c1.2,0,2.2-1,2.2-2.2c0-1.2-1-2.2-2.2-2.2C90.2,209.3,89.2,210.3,89.2,211.5
				z"/>
			<path class="st0" d="M97.1,267.2c0,1.2,1,2.2,2.2,2.2c1.2,0,2.2-1,2.2-2.2c0-1.2-1-2.2-2.2-2.2C98.1,265,97.1,266,97.1,267.2z"/>
			<path class="st0" d="M81.3,267.2c0,1.2,1,2.2,2.2,2.2c1.2,0,2.2-1,2.2-2.2c0-1.2-1-2.2-2.2-2.2C82.3,265,81.3,266,81.3,267.2z"/>
		</g>
		<path class="st1" d="M102.1,154.6h-9.3c0,0,1.6,8.6,1.6,13.6c0,5-7.1,24.8,3,24.8c10.1,0,3-19.8,3-24.8
			C100.5,163.1,102.1,154.6,102.1,154.6z"/>
		<path class="st3" d="M66.8,174.9v6c0,6.7,5.5,12.1,12.1,12.1h6c6.7,0,12.1-5.5,12.1-12.1v-6H66.8z"/>
		<path class="st1" d="M172.4,231c0,7,7.8,12.7,17.4,12.7h8.6c9.6,0,17.4-5.7,17.4-12.7H172.4z"/>
		<g>
			<path class="st1" d="M467.1,220.7c-5.2,4.3-12.5,12.1-19.1,23.1c-4.4,7.3-7.1,15-8.2,25.2c0-11.5,0.1-23.9,0.1-35.5
				c1.3-3,4.4-9.9,6.6-15.4c7.3-18.2,10-22.7,16.5-38.4c8.7-21,17.7-45.9,15.1-43.9c-5.2,4.1-25.2,41.5-27.4,46.9
				c-7.4,18.4-9.5,31.9-10.8,44.9c0-11,0.1-21,0.1-28.8c0.1-25.3,0.6-33.5,0.8-36c0.8-1.3,1.8-2.8,2.3-3.6
				c4.7-6.8,6.5-12.6,10.9-22.7c6.3-14.4,11.7-39.8,10.1-38.6c-6.6,5.4-11.8,16.9-18.6,31.5c-6.8,14.7-4.9,23.1-6.2,35.6
				c-0.3,2.5-0.5,11.7-0.7,24.6c-1.8-13.7-5.1-22.7-11.1-30.9c-7.4-10.1-14.6-16.9-19.9-20.5c-5.3-3.6,9.1,21.2,16,32
				c6.1,9.6,11.8,18.1,15,26.5c-0.2,17.4-0.2,39.5-0.2,60c-1.6-9.3-4.2-19.4-7.6-27.2c-4.1-9.4-10.5-23.7-15.6-28.6
				c-1.2-1.2,5.3,26.8,9.5,34.2c4.2,7.4,7.2,14.4,9.9,18.6c0.6,1,2.6,4.8,3.8,6.9c0,25.1,0.1,47.2,0.4,54.7h1.1
				c-0.1-1.9-0.1-14.7-0.1-31.6c2.6-9.2,8.6-19.6,13.5-29.2C458.6,244.4,472.4,216.5,467.1,220.7z"/>
			<g>
				<polygon class="st4" points="455,330.9 423.6,330.9 421.2,300.2 457.3,300.2 				"/>
				<polygon class="st3" points="459.7,303.8 418.9,303.8 417.7,293.4 460.8,293.4 				"/>
			</g>
		</g>
		<g>
			<rect x="43.5" y="22.2" class="st1" width="56.1" height="61.5"/>
			<rect x="47.7" y="22.2" class="st3" width="57.9" height="61.5"/>
			
				<rect x="50.8" y="28.9" transform="matrix(-1.836970e-16 1 -1 -1.836970e-16 129.6651 -23.7168)" class="st5" width="51.8" height="48.2"/>
			
				<rect x="63.3" y="40.6" transform="matrix(-1.836970e-16 1 -1 -1.836970e-16 129.6651 -23.7168)" class="st3" width="26.7" height="24.8"/>
		</g>
		<g>
			<g>
				<rect x="324.3" y="29.4" class="st1" width="52.1" height="57.2"/>
				<rect x="328.3" y="29.4" class="st3" width="53.8" height="57.2"/>
				
					<rect x="331.1" y="35.6" transform="matrix(-1.836970e-16 1 -1 -1.836970e-16 413.1198 -297.1941)" class="st5" width="48.2" height="44.8"/>
			</g>
			<circle class="st3" cx="355.2" cy="58" r="14"/>
		</g>
		<g>
			<g>
				<rect x="116.2" y="58.9" class="st1" width="41.6" height="45.7"/>
				<rect x="119.4" y="58.9" class="st3" width="42.9" height="45.7"/>
				
					<rect x="121.6" y="63.9" transform="matrix(-1.836970e-16 1 -1 -1.836970e-16 222.556 -59.0997)" class="st5" width="38.5" height="35.8"/>
				<polygon class="st3" points="140.8,72 131,88.9 150.6,88.9 				"/>
			</g>
		</g>
	</g>
</g>
<g id="Background_simple" class="st6">
	<g class="st7">
		<path class="st3" d="M134.5,184.4c58.5,60.4,135.5,102.2,206.8,34.6c36.8-34.8,85.3-128.9,37.4-172
			c-66.1-59.3-104,37.8-153.4,50.9c-33.9,9-62.3-43-102.9-8.3C90.4,117.2,110.1,159.4,134.5,184.4z"/>
	</g>
</g>
<g id="Shadow">
	<ellipse class="st3" cx="250" cy="362.9" rx="232" ry="11.3"/>
</g>
<g id="Character_2">
	<g>
		<path class="st8" d="M370.9,110.1l-9.9-4c0,0-13.1,23.9-16.8,25.1c-5.1,1.6-15.7,6.2-21.9,7.1c-0.8,1-2.2,4.1-2.1,5.2
			c8.4,2.8,26.9-0.9,30.8-3.9C360,132.9,370.9,110.1,370.9,110.1z"/>
		<g>
			<path class="st9" d="M374,104.7c1.8,6.8-8.2,20.6-8.2,20.6l-13.2-7.4c0,0,2.5-5.6,5.5-11.4C363,97.2,371.9,96.9,374,104.7z"/>
			<path class="st10" d="M374,104.7c1.8,6.8-8.2,20.6-8.2,20.6l-13.2-7.4c0,0,2.5-5.6,5.5-11.4C363,97.2,371.9,96.9,374,104.7z"/>
		</g>
		<path class="st10" d="M357.9,120.9l5.2,2.9l0.9-15.9C361,110.2,358.8,117.2,357.9,120.9z"/>
		<g>
			<path class="st9" d="M365.3,99.6c0,0-10.2,22.7-4.3,65.1c12.1,0,34.4,0,40.3,0c0.6-6.2-1.5-36.3,6.2-65.5c0,0-6.8-1.4-13.4-1.7
				c-5.1-0.2-12.6-0.4-17.1,0C371.1,98,365.3,99.6,365.3,99.6z"/>
			<path class="st10" d="M365.3,99.6c0,0-10.2,22.7-4.3,65.1c12.1,0,34.4,0,40.3,0c0.6-6.2-1.5-36.3,6.2-65.5c0,0-6.8-1.4-13.4-1.7
				c-5.1-0.2-12.6-0.4-17.1,0C371.1,98,365.3,99.6,365.3,99.6z"/>
		</g>
		<path class="st11" d="M356,363.8c-0.1,1.1,15.2,1.9,34.1,1.9c18.9,0,34.3-0.9,34.3-1.9c0.1-1.1-15.2-1.9-34.1-1.9
			C371.4,361.9,356.1,362.8,356,363.8z"/>
		
			<rect x="379.5" y="337.7" transform="matrix(0.9331 -0.3595 0.3595 0.9331 -98.8432 160.9838)" class="st8" width="7.7" height="17.1"/>
		<polygon class="st8" points="414.7,356.2 407.2,356.2 404.4,338.7 412,338.7 		"/>
		<path class="st12" d="M406.7,355.3l8.5,0c0.3,0,0.6,0.2,0.6,0.5l1.1,6.7c0.1,0.7-0.5,1.4-1.2,1.3c-3-0.1-4.4-0.2-8.1-0.2
			c-2.3,0-7,0.2-10.2,0.2c-3.1,0-3.4-3.1-2.1-3.4c5.9-1.3,8.2-3,10.1-4.7C405.8,355.4,406.3,355.3,406.7,355.3z"/>
		<path class="st12" d="M381.7,352.6l8-2.3c0.3-0.1,0.6,0,0.7,0.3l3,6c0.3,0.6-0.1,1.4-0.8,1.6c-2.9,0.8-4.9,1.3-8.5,2.3
			c-2.5,0.7-5.1,1.9-7.6,2.7c-1.7,0.5-5.8,0.6-7.8,0.6c-3.1,0-3.8-3.3-2.5-3.4c3.4-0.4,3.8-0.2,5.7-1.1c3.1-1.5,5.4-2.8,8.1-5.6
			C380.5,353.2,381,352.8,381.7,352.6z"/>
		<path class="st8" d="M323.5,138.2l-8.3-3.5l-3.4,9.2c0,0,4.8,0.9,10.2,0L323.5,138.2z"/>
		<polygon class="st8" points="309.1,134.5 308.9,140.6 311.8,143.9 315.2,134.7 		"/>
		<g>
			
				<rect x="378" y="337.9" transform="matrix(0.9329 -0.3601 0.3601 0.9329 -97.6591 160.4652)" class="st13" width="7.7" height="8.8"/>
			<polygon class="st13" points="412,338.7 404.4,338.7 405.9,347.7 413.4,347.7 			"/>
		</g>
		<path class="st10" d="M359.8,153.2c0.1,1.8,0.3,3.7,0.5,5.6l29.9-9.7c4.7-1.4,8.7-4.3,11.5-8.4c0.1-2.7,0.3-5.5,0.5-8.4
			c0.1-1.4,0.2-2.9,0.4-4.4c0.1-1.5,0.3-3.1,0.5-4.7L359.8,153.2z"/>
		<path class="st5" d="M369.6,120.4l-1-0.1c0.6-5,4.3-8.9,8.3-8.8l0,1C373.4,112.4,370.1,115.9,369.6,120.4z"/>
		<path class="st5" d="M374.9,129.6c-0.1,0-0.1,0-0.2,0l0-1c3.4,0.1,6.7-3.5,7.2-7.9l1,0.1C382.4,125.7,378.8,129.6,374.9,129.6z"/>
		<path class="st8" d="M393.6,78.2c-1.4,5.5-3.1,15.6,0.6,19.3c0,0-2.5,5.6-12.8,5.6c-9.4,0-4.3-5.6-4.3-5.6c6.2-1.5,6.3-6,5.5-10.3
			L393.6,78.2z"/>
		<path class="st13" d="M389.1,81.9l-6.5,5.3c0.2,1,0.3,2,0.3,3c1.9,1.9,5.7-2.9,6.1-5.4C389.3,83.6,389.3,82.4,389.1,81.9z"/>
		<path class="st13" d="M371.3,78.1c1,1.7,2.6,2.8,4.2,3.1c2.4,0.5,3.6-1.7,2.9-3.9c-0.6-2-2.6-4.7-5-4.2
			C371.2,73.6,370.3,76.2,371.3,78.1z"/>
		<path class="st12" d="M375.3,60.5c-3.7,1.7-5.1,16.6-0.4,18.8C379.7,81.5,382.4,57.3,375.3,60.5z"/>
		<path class="st8" d="M394.7,69.9c-0.9,7.5-1,11.8-5,15.7c-6,5.8-15,2.3-16.4-5.1c-1.2-6.7,0.5-17.8,7.9-20.7
			C388.7,56.8,395.6,62.5,394.7,69.9z"/>
		<path class="st12" d="M382.5,64.4c5.5-1.4,9.6-2.4,8.2,2.2c-1.9,6.2-4.3,12.1-1.1,12.4c1.9,0.2,10.3-3.4,9.2-7
			c-0.9-3.1,3-4,3.7-5.6c2.6-5.8-4.8-5-3.5-8.5c1.3-3.4-6-9.1-10-6.3c-6.5,4.5-17.7,4.5-11.8-3c4.2-5.3-3.3-4.2-3.3-4.2
			s4.5,2.7-3.1,6.9C362.6,55.6,370,67.6,382.5,64.4z"/>
		<path class="st8" d="M397.6,78.1c-1.2,1.7-3,2.8-4.6,3.1c-2.5,0.5-3.4-1.7-2.5-3.9c0.8-2,3.1-4.7,5.5-4.2
			C398.3,73.6,399,76.2,397.6,78.1z"/>
		<path class="st9" d="M361.1,164.6c0,0-6.8,60.5-7.3,83.5c-0.5,23.9,22.9,98.4,22.9,98.4l12-5c0,0-14-68.1-12-91.5
			c2.1-25.6,10.9-85.3,10.9-85.3H361.1z"/>
		<path class="st10" d="M377.9,181.3c-5.4,11.2-1.8,33.3,1.2,46.4c1.1-9.2,2.4-19.3,3.7-28.6C382.6,184.8,381.5,173.8,377.9,181.3z"
			/>
		<path class="st9" d="M388.2,337.5c0.1,0,1.4,3.8,1.4,3.8l-13.8,5.8l-2.2-4.1L388.2,337.5z"/>
		<path class="st9" d="M375.4,164.6c0,0,5.2,57.5,8.6,79.1c3.8,23.6,18.5,102.2,18.5,102.2h13.8c0,0-8.3-76.7-9.8-100.1
			c-1.7-25.4-5.1-81.2-5.1-81.2H375.4z"/>
		<path class="st9" d="M416.5,342.4c0.1,0,0.5,3.9,0.5,3.9h-15.2l-1.1-4.4L416.5,342.4z"/>
		<path class="st10" d="M411.2,337.8c-0.1,0-0.1,0-0.1-0.1c-0.1-0.7-7.5-70-8.9-91c-1.5-22.8-4.6-73.3-4.6-73.8
			c0-0.1,0.1-0.1,0.1-0.1c0,0,0,0,0,0c0.1,0,0.1,0.1,0.1,0.1c0,0.5,3.1,51,4.6,73.8c1.4,21,8.9,90.3,8.9,91
			C411.3,337.8,411.3,337.8,411.2,337.8C411.2,337.8,411.2,337.8,411.2,337.8z"/>
		<path class="st12" d="M383.3,72c0,0.6-0.4,1.1-0.8,1.1c-0.4,0-0.7-0.5-0.7-1.1c0-0.6,0.4-1.1,0.8-1.1
			C383.1,70.9,383.3,71.4,383.3,72z"/>
		<path class="st12" d="M376.4,72c0,0.6-0.4,1.1-0.8,1.1S375,72.6,375,72c0-0.6,0.4-1.1,0.8-1.1C376.2,70.9,376.5,71.4,376.4,72z"/>
		<path class="st14" d="M378.6,72.3c0,0-1.6,3.5-3.2,5.2c1,1,2.9,0.5,2.9,0.5L378.6,72.3z"/>
		<path class="st12" d="M378.8,80.6c-0.1,0-0.2-0.1-0.2-0.2c0-0.1,0.1-0.2,0.2-0.2c2.7,0,4-1.9,4-1.9c0.1-0.1,0.2-0.1,0.2-0.1
			c0.1,0.1,0.1,0.2,0,0.2C383.1,78.6,381.6,80.6,378.8,80.6z"/>
		<path class="st12" d="M384.5,70.1c-0.1,0-0.2,0-0.3,0c-1.3-0.8-2.5-0.3-2.5-0.3c-0.2,0.1-0.4,0-0.5-0.2c-0.1-0.2,0-0.4,0.2-0.5
			c0.1,0,1.6-0.7,3.2,0.3c0.2,0.1,0.2,0.3,0.1,0.5C384.7,70.1,384.6,70.1,384.5,70.1z"/>
		<path class="st12" d="M373.8,68.2c0,0-0.1,0-0.1-0.1c-0.1-0.1-0.1-0.4,0-0.5c1.4-1.5,3-1.3,3.1-1.2c0.2,0,0.3,0.2,0.3,0.4
			c0,0.2-0.2,0.3-0.4,0.3l0,0c-0.1,0-1.3-0.2-2.4,1C374.1,68.2,373.9,68.2,373.8,68.2z"/>
		<path class="st8" d="M411.4,109l-10.4-2.8c0,0-10.2,25.1-13.8,26.7c-4.9,2.2-17.3,9.9-22.6,13.7c-0.3,1.2-0.1,4.6,0.6,5.5
			c9-1.6,26.2-8.3,29.8-11.6C403.3,132.8,411.4,109,411.4,109z"/>
		<path class="st9" d="M404.2,356.6c-0.6,0-1.1-0.1-1.4-0.4c-0.3-0.2-0.4-0.5-0.3-0.9c0-0.3,0.2-0.4,0.3-0.5
			c0.8-0.4,3.2,1.1,3.5,1.2c0.1,0,0.1,0.1,0.1,0.2c0,0.1-0.1,0.1-0.1,0.1C405.6,356.5,404.9,356.6,404.2,356.6z M403.1,355
			c-0.1,0-0.2,0-0.2,0c0,0-0.1,0.1-0.1,0.2c0,0.3,0,0.5,0.2,0.6c0.4,0.3,1.4,0.4,2.7,0.1C404.8,355.6,403.7,355,403.1,355z"/>
		<path class="st9" d="M406.1,356.3C406.1,356.3,406,356.3,406.1,356.3c-0.8-0.4-2.2-2.1-2-2.9c0-0.2,0.2-0.4,0.6-0.5
			c0.3,0,0.5,0,0.7,0.2c0.8,0.7,0.9,2.9,0.9,3C406.3,356.2,406.3,356.3,406.1,356.3C406.2,356.3,406.1,356.3,406.1,356.3z
			 M404.8,353.3C404.7,353.3,404.7,353.3,404.8,353.3c-0.3,0-0.3,0.1-0.4,0.2c-0.1,0.5,0.8,1.7,1.5,2.3c-0.1-0.6-0.2-1.9-0.8-2.4
			C405,353.3,404.9,353.3,404.8,353.3z"/>
		<path class="st9" d="M377.6,355.4c-0.7,0.2-1.4,0.2-1.9,0c-0.3-0.2-0.4-0.4-0.5-0.8c0-0.2,0-0.4,0.2-0.5c0.8-0.7,4.1,0.1,4.4,0.1
			c0.1,0,0.1,0.1,0.1,0.2c0,0.1,0,0.1-0.1,0.2C379.3,354.8,378.4,355.2,377.6,355.4z M376,354.2c-0.1,0-0.2,0.1-0.3,0.1
			c-0.1,0.1-0.1,0.1-0.1,0.2c0,0.2,0.1,0.4,0.3,0.5c0.5,0.3,1.8,0.1,3.4-0.6C378.1,354.2,376.7,354,376,354.2z"/>
		<path class="st9" d="M379.9,354.5C379.8,354.5,379.8,354.5,379.9,354.5c-1-0.2-3.1-1.3-3.1-2.2c0-0.2,0.1-0.5,0.6-0.6
			c0.3-0.1,0.7-0.1,1,0.1c1.1,0.5,1.7,2.5,1.7,2.5C380,354.4,380,354.4,379.9,354.5C379.9,354.5,379.9,354.5,379.9,354.5z
			 M377.5,352c0,0-0.1,0-0.1,0c-0.3,0.1-0.3,0.2-0.3,0.3c0,0.5,1.4,1.5,2.5,1.8c-0.2-0.6-0.7-1.7-1.4-2
			C377.9,352,377.7,352,377.5,352z"/>
		<path class="st8" d="M365.5,146.1l-10.4,4.8l-1.2,2.9l3.9,2.6c0,0,7.2-0.8,9.2-5.4L365.5,146.1z"/>
		<path class="st12" d="M365.9,152.3c-0.7-3.9-1.9-5.6-1.9-5.7l1.6-1.2c0.1,0.1,1.6,2.1,2.3,6.6L365.9,152.3z"/>
		<path class="st12" d="M367.7,147.5c0.3,0.8-0.2,1.8-1.2,2.3c-1,0.4-2.1,0.1-2.4-0.8c-0.3-0.8,0.2-1.8,1.2-2.3
			C366.3,146.3,367.3,146.7,367.7,147.5z"/>
		<polygon class="st8" points="348,154.8 349.4,156.2 358.7,152.2 355,150.9 		"/>
		<path class="st10" d="M388.2,337.5c0.1,0,1.4,3.8,1.4,3.8l-13.8,5.8l-2.2-4.1L388.2,337.5z"/>
		<path class="st10" d="M416.5,342.4c0.1,0,0.5,3.9,0.5,3.9h-15.2l-1.1-4.4L416.5,342.4z"/>
		<g>
			<path class="st9" d="M414.1,106.1c2.8,8.9-8,21-8,21l-14.8-6.1c0,0,2.1-6.4,6.1-15.1C401.9,96.2,411.3,97.2,414.1,106.1z"/>
			<path class="st10" d="M414.1,106.1c2.8,8.9-8,21-8,21l-14.8-6.1c0,0,2.1-6.4,6.1-15.1C401.9,96.2,411.3,97.2,414.1,106.1z"/>
		</g>
	</g>
</g>
<g id="Screen">
</g>
<g id="Character_1">
	<g>
		<g>
			<path class="st8" d="M94.3,159.1c-0.9,2.1-1.9,4.4-2.8,6.6c-0.9,2.2-1.8,4.5-2.5,6.8c-1.5,4.6-2.9,9.2-3.6,13.8l-0.2,1.5
				c0,0.2,0,0.4,0.1,0.7c0.1,0.6,0.5,1.5,1.1,2.3c1.1,1.7,2.7,3.4,4.4,5c1.7,1.6,3.6,3.2,5.5,4.6c1.9,1.5,3.9,2.9,5.9,4.3l-1.9,3.5
				c-4.8-2.1-9.2-4.6-13.5-7.7c-2.1-1.6-4.2-3.3-6-5.7c-0.9-1.2-1.8-2.5-2.4-4.3c-0.3-0.9-0.5-1.9-0.5-2.9c0-0.2,0-0.6,0-0.8l0-0.5
				l0.1-1c0.5-5.3,1.7-10.4,3.3-15.3c0.8-2.5,1.6-4.9,2.6-7.3c1-2.4,1.9-4.7,3.1-7.2L94.3,159.1z"/>
			<path class="st8" d="M100.8,204.1l7.1-3.6l-1.8,7.8c0,0-4.9,1.4-7.1-1L100.8,204.1z"/>
			<polygon class="st8" points="114.4,201.8 112.5,208.2 106.1,208.3 107.9,200.5 			"/>
			<path class="st14" d="M124.3,121.7c0,0,0.6,2.3,1.6,4c-0.8,0.8-1.6,0.5-1.6,0.5V121.7z"/>
			<ellipse class="st12" cx="124.1" cy="120.6" rx="0.7" ry="1.1"/>
			<path class="st12" d="M124,119.5l1.5-0.4C125.5,119.1,124.7,120.3,124,119.5z"/>
			<path class="st8" d="M104.8,129c0.9,4.7,1.8,13.2-1.4,16.3c0,0,1.3,4.7,9.9,4.7c9.5,0,4.5-4.7,4.5-4.7c-5.2-1.2-5.1-5.1-4.2-8.7
				L104.8,129z"/>
			<path class="st8" d="M102.3,118.4c0.5,7.8,0.5,11.1,4.4,15.1c5.9,6,15.3,3.7,17.2-4c1.7-7,0.6-18.5-7-21.6
				C109.4,104.8,101.8,110.7,102.3,118.4z"/>
			<path class="st12" d="M103.1,109.7C99.2,111.1,94,110,96,122c2.2,12.7-1.2,16.9-1.2,16.9s14.8,3.2,29.9-0.2c0,0-4.6-8.1-3.3-13.9
				c1.6-7.5,0.3-10.3,0.3-10.3S108.5,107.7,103.1,109.7z"/>
			<path class="st8" d="M119.6,122.5c0,1.5,0.5,3.1,1.2,4.2c1.1,1.6,2.3,1,2.6-0.7c0.3-1.5,0.1-4.2-1.3-5.2
				C120.8,119.7,119.6,120.7,119.6,122.5z"/>
			<path class="st12" d="M99.7,111c-1.1-3.1,4.2-8,15.5-6c11.3,2,11.8,11.4,11.8,11.4l-2.3-2.7l0.1,2.9l-11.6,2.2L99.7,111z"/>
			<g>
				<path class="st9" d="M100.6,145.9L100.6,145.9c-0.2-1,0.5-1.9,1.5-2c3.5-0.6,11.5-1.8,15.5-1.2c3,0.4,3.8,2.2,3.9,3.6
					c0.1,1.1-0.8,2-1.8,1.9l-17.4-0.8C101.5,147.3,100.8,146.7,100.6,145.9z"/>
				<path class="st15" d="M100.6,145.9L100.6,145.9c-0.2-1,0.5-1.9,1.5-2c3.5-0.6,11.5-1.8,15.5-1.2c3,0.4,3.8,2.2,3.9,3.6
					c0.1,1.1-0.8,2-1.8,1.9l-17.4-0.8C101.5,147.3,100.8,146.7,100.6,145.9z"/>
			</g>
			<polygon class="st8" points="110.7,320.6 117.1,325 127.9,310.4 121.5,305.9 			"/>
			<polygon class="st8" points="95.6,320.3 102.4,324.2 112,308.7 105.2,304.8 			"/>
			<g>
				<polygon class="st13" points="127.9,310.4 122.3,318 115.9,313.5 121.5,305.9 				"/>
				<polygon class="st13" points="105.2,304.8 112,308.7 107.1,316.7 100.2,312.8 				"/>
			</g>
			<g>
				<path class="st9" d="M116.1,194.7c0,0,25.2,31.7,20.5,62.1c-3.8,24.5-25.9,57.7-25.9,57.7l-10.4-5.2c0,0,11.3-22.1,18.7-45.4
					c3.1-9.8,1.8-20.6-4-29.1c-12.8-18.6-33.2-7.5-19.4-40.1H116.1z"/>
				<path class="st15" d="M116.1,194.7c0,0,25.2,31.7,20.5,62.1c-3.8,24.5-25.9,57.7-25.9,57.7l-10.4-5.2c0,0,11.3-22.1,18.7-45.4
					c3.1-9.8,1.8-20.6-4-29.1c-12.8-18.6-33.2-7.5-19.4-40.1H116.1z"/>
			</g>
			<path class="st16" d="M128.5,215.1l-3.7-3.6c0,0.3,7.1,44.1,9.1,56.4c1.2-3.8,2.1-7.5,2.7-11C138.9,241.9,134,226.7,128.5,215.1z
				"/>
			<g>
				<path class="st9" d="M127.4,194.7c0,0,30.3,39.9,31.2,63.8c0.7,20-33,58.7-33,58.7l-9.8-6.3c0,0,19.7-27.5,24.7-50
					c-1.9-22.3-42.5-66.2-42.5-66.2H127.4z"/>
				<path class="st15" d="M127.4,194.7c0,0,30.3,39.9,31.2,63.8c0.7,20-33,58.7-33,58.7l-9.8-6.3c0,0,19.7-27.5,24.7-50
					c-1.9-22.3-42.5-66.2-42.5-66.2H127.4z"/>
			</g>
			<path class="st9" d="M89.8,147.1c-3.2,0.8-6.3,12.6-6.3,12.6l12.7,8.5c0,0,4.2-9.3,2.7-13.4C97.4,150.5,93.9,146.1,89.8,147.1z"
				/>
			<path class="st10" d="M92.3,154.7L91.4,165l4.7,3.2c0,0,2.2-4.9,2.9-9.1L92.3,154.7z"/>
			<path class="st9" d="M131.1,147.3c0,0,3.7,1.3-3.7,47.4c-12.6,0-25.7,0-31.9,0c0.5-13,0.5-21-5.6-47.6c0,0,6.7-1.5,13.5-1.8
				c5.4-0.3,9.8-0.4,14.5,0C124.1,145.9,131.1,147.3,131.1,147.3z"/>
			<path class="st8" d="M134.3,154.6c0.7,2,1.5,4.2,2.3,6.2c0.8,2.1,1.6,4.2,2.4,6.3l2.5,6.3l0.6,1.6l0.3,0.8l0.2,0.4
				c0,0.1,0,0.1,0,0.1c0,0-0.1-0.2-0.7-0.6c-0.3-0.2-0.8-0.4-1.3-0.4c-0.5,0-0.9,0.1-1.1,0.2c-0.5,0.2-0.5,0.3-0.4,0.3
				c0,0,0.1-0.1,0.2-0.2c0.4-0.5,1-1.4,1.4-2.3c0.5-0.9,0.9-1.9,1.4-2.9c0.9-2,1.7-4.1,2.5-6.2c0.8-2.1,1.6-4.2,2.3-6.3l2.3-6.4
				l3.9,1c-0.8,4.6-1.7,9-2.9,13.5c-0.6,2.2-1.2,4.5-2,6.7c-0.4,1.1-0.8,2.3-1.3,3.4c-0.5,1.2-1,2.3-1.9,3.6
				c-0.2,0.3-0.5,0.7-0.9,1.1c-0.4,0.4-0.8,0.8-1.8,1.3c-0.5,0.2-1.2,0.4-1.9,0.4c-0.8,0-1.6-0.3-2.1-0.6c-1.1-0.7-1.5-1.4-1.8-1.9
				c-0.2-0.3-0.3-0.5-0.4-0.7l-0.2-0.4l-0.4-0.8l-0.8-1.6c-1-2.1-2-4.2-2.9-6.3c-0.9-2.1-1.8-4.3-2.7-6.4c-0.8-2.2-1.6-4.3-2.4-6.6
				L134.3,154.6z"/>
			<path class="st9" d="M131.1,147.3c3.8,0.9,8.1,12.2,8.1,12.2l-11.4,9.7c0,0-7.4-12.3-5.9-16.4
				C123.5,148.6,126.1,146.1,131.1,147.3z"/>
			<path class="st8" d="M150.9,147.9l4-3.3l2.8,4.3l-2,3.6c0,0-3.3,3-6.1,1.5l0,0C148.5,151.8,149.1,149.4,150.9,147.9z"/>
			<polygon class="st8" points="162.1,144.6 161.8,145.6 155.5,146.7 154.9,144.6 			"/>
			<polygon class="st9" points="126.3,317.8 114.9,310.4 116.9,306.8 129.8,314.7 			"/>
			<path class="st12" d="M106.9,323.6c-0.9,0-2.1-0.6-2.8-1c-0.1,0-0.1-0.1-0.1-0.2c0-0.1,0.1-0.1,0.1-0.2c0.3-0.1,3-0.9,3.8-0.3
				c0.1,0.1,0.3,0.3,0.2,0.6c-0.1,0.4-0.2,0.7-0.6,0.9C107.4,323.6,107.1,323.6,106.9,323.6z M104.6,322.5c1.2,0.6,2.2,0.9,2.7,0.6
				c0.2-0.1,0.3-0.3,0.4-0.6c0-0.2,0-0.2-0.1-0.3C107.2,322,105.7,322.2,104.6,322.5z"/>
			<path class="st12" d="M104.2,322.7c-0.1,0-0.1,0-0.1-0.1c0,0-0.1-0.1,0-0.2c0-0.1,0.7-2.3,1.7-2.8c0.3-0.1,0.6-0.1,0.8,0
				c0.4,0.2,0.5,0.5,0.5,0.7C106.9,321.2,105,322.5,104.2,322.7C104.2,322.7,104.2,322.7,104.2,322.7z M106.1,319.9
				c-0.1,0-0.2,0-0.3,0.1c-0.6,0.3-1.1,1.5-1.4,2.2c0.9-0.4,2.1-1.4,2.1-1.9c0-0.1,0-0.2-0.2-0.3C106.3,320,106.2,319.9,106.1,319.9
				z"/>
			<path class="st12" d="M121.2,327.9c-1.1,0-2.7-1.4-3.6-2.3c-0.1-0.1-0.1-0.1,0-0.2c0-0.1,0.1-0.1,0.2-0.1
				c0.4,0.1,3.9,0.5,4.4,1.5c0.1,0.2,0.1,0.4,0,0.6c-0.2,0.3-0.5,0.5-0.8,0.6C121.3,327.9,121.2,327.9,121.2,327.9z M118.3,325.7
				c1.3,1.2,2.4,1.9,3,1.8c0.2,0,0.4-0.1,0.5-0.4c0-0.1,0.1-0.2,0-0.2C121.5,326.4,119.7,326,118.3,325.7z"/>
			<path class="st12" d="M118.4,325.7c-0.3,0-0.5,0-0.7-0.1c-0.1,0-0.1-0.1-0.1-0.1c0-0.1,0-0.1,0-0.2c0.1-0.1,1.4-1.7,2.7-1.8
				c0.4,0,0.7,0.1,1,0.3c0.4,0.3,0.4,0.6,0.3,0.8C121.3,325.4,119.6,325.7,118.4,325.7z M118.1,325.3c1.1,0.1,2.9-0.3,3.1-0.8
				c0,0,0.1-0.2-0.2-0.4c-0.2-0.2-0.5-0.3-0.8-0.2C119.5,324,118.6,324.9,118.1,325.3z"/>
			<path class="st9" d="M104.4,321.6l-8.5-2.4c-0.3-0.1-0.6,0.1-0.7,0.3l-2.9,6.4c-0.3,0.7,0.1,1.5,0.8,1.7c3,0.8,4.4,1,8.2,2.1
				c2.3,0.6,5.6,1.8,8.7,2.7c3.1,0.9,4.2-2.2,3-2.8c-5.6-2.9-6-5-7.5-7.2C105.3,322,104.9,321.7,104.4,321.6z"/>
			<path class="st9" d="M117.9,324.4l-7.2-5c-0.3-0.2-0.6-0.1-0.8,0.1l-4.8,5.2c-0.5,0.5-0.4,1.5,0.2,1.9c2.6,1.7,3.9,2.4,7.1,4.6
				c2,1.4,5.9,4.4,8.6,6.3c2.6,1.8,4.7-0.7,3.7-1.7c-4.3-4.6-5.2-7.5-6-10.1C118.5,325.1,118.2,324.7,117.9,324.4z"/>
			<polygon class="st9" points="112,315.1 98.9,308.6 100.3,305.1 114.2,311.9 			"/>
			<g>
				<path class="st9" d="M95,192.8l-1.1,2.9c-0.1,0.2,0.2,0.4,0.5,0.4h33.1c0.3,0,0.5-0.1,0.5-0.3l0.3-2.9c0-0.2-0.2-0.4-0.5-0.4
					H95.5C95.3,192.6,95.1,192.7,95,192.8z"/>
				<path class="st17" d="M95,192.8l-1.1,2.9c-0.1,0.2,0.2,0.4,0.5,0.4h33.1c0.3,0,0.5-0.1,0.5-0.3l0.3-2.9c0-0.2-0.2-0.4-0.5-0.4
					H95.5C95.3,192.6,95.1,192.7,95,192.8z"/>
			</g>
			<g>
				<path class="st9" d="M100.2,196.4h-0.9c-0.2,0-0.3-0.1-0.3-0.2l0.4-3.7c0-0.1,0.2-0.2,0.3-0.2h0.9c0.2,0,0.3,0.1,0.3,0.2
					l-0.4,3.7C100.5,196.3,100.4,196.4,100.2,196.4z"/>
				<path class="st9" d="M120.6,196.4h-0.9c-0.2,0-0.3-0.1-0.3-0.2l0.4-3.7c0-0.1,0.2-0.2,0.3-0.2h0.9c0.2,0,0.3,0.1,0.3,0.2
					l-0.4,3.7C121,196.3,120.8,196.4,120.6,196.4z"/>
			</g>
		</g>
		<g>
			<g>
				<ellipse class="st3" cx="99.5" cy="363.8" rx="26.8" ry="1.9"/>
				<path class="st1" d="M115.8,361.1c-4.7-1.4-10-3.1-13.2-5c-0.1-0.1-0.2-0.1-0.3-0.1v-21.4h9.5c1.6,0,2.9-1.3,2.9-2.9
					c0-1.6-1.3-2.9-2.9-2.9h-9.5V231h-5.7v97.8h-9.5c-1.6,0-2.9,1.3-2.9,2.9c0,1.6,1.3,2.9,2.9,2.9h9.5v21.4c-0.1,0-0.2,0.1-0.3,0.1
					c-3.2,1.9-8.4,3.7-13.2,5c-1.6,0.5-1.2,2.7,0.4,2.7h15.9h15.9C117,363.8,117.3,361.6,115.8,361.1z"/>
			</g>
			<g>
				<path class="st9" d="M117.3,241.9H81.7c-2.8,0-5.2-2.3-5.2-5.2v-10.6c0-2.8,2.3-5.2,5.2-5.2h35.6c2.8,0,5.2,2.3,5.2,5.2v10.6
					C122.4,239.6,120.1,241.9,117.3,241.9z"/>
				<g>
					<path class="st9" d="M81.4,241.9v1.8c0,1.5,1.6,2.7,3.6,2.7h29c2,0,3.6-1.2,3.6-2.7v-1.8H81.4z"/>
					<path class="st18" d="M81.4,241.9v1.8c0,1.5,1.6,2.7,3.6,2.7h29c2,0,3.6-1.2,3.6-2.7v-1.8H81.4z"/>
				</g>
			</g>
		</g>
	</g>
</g>
</svg>
