<?xml version="1.0" encoding="utf-8"?>
<!-- Generator: Adobe Illustrator 27.2.0, SVG Export Plug-In . SVG Version: 6.00 Build 0)  -->
<svg version="1.1" id="Layer_1" xmlns="http://www.w3.org/2000/svg" xmlns:xlink="http://www.w3.org/1999/xlink" x="0px" y="0px"
	 viewBox="0 0 134.9 40.3" style="enable-background:new 0 0 134.9 40.3;" xml:space="preserve">
<style type="text/css">
	.st0{fill:#ECA820;}
	.st1{fill:#006EB6;}
</style>
<g>
	<g>
		<rect x="21" y="23" class="st0" width="1.3" height="6.7"/>
		<rect x="19.2" y="24.8" class="st0" width="1.3" height="4.9"/>
		<rect x="17.3" y="27.2" class="st0" width="1.3" height="2.6"/>
		<g>
			<g>
				<rect x="12.4" y="11.4" class="st0" width="5.8" height="5.8"/>
				<rect x="9.4" y="17.8" class="st1" width="2.4" height="2.4"/>
				<rect x="4.3" y="11.9" class="st1" width="4.8" height="4.8"/>
				<rect x="10.7" y="7.1" class="st0" width="3.4" height="3.4"/>
				<rect x="6.7" y="7.8" class="st0" width="2.5" height="2.5"/>
				<rect x="8" y="3.6" class="st1" width="2.7" height="2.8"/>
				<rect x="16.5" y="4" class="st1" width="3.1" height="3.1"/>
			</g>
			<path class="st1" d="M21.9,7.6h-7v2h7c0.9,0,1.6,0.7,1.8,1.7c0,0.1,0,0.3,0,0.4v16.3c0,1.2-0.8,2.2-1.8,2.2H9.8
				c-1,0-1.8-1-1.8-2.2V17.9H6v10.2v4.5c0,2.3,1.7,4.2,3.8,4.2h12.1c2.1,0,3.8-1.9,3.8-4.2v-4.5V11.8C25.7,9.5,24,7.6,21.9,7.6z
				 M12.3,34.2H9.1v-0.7h3.2V34.2z M15.8,35.3c-0.9,0-1.7-0.7-1.7-1.5c0-0.8,0.8-1.5,1.7-1.5c0.9,0,1.7,0.7,1.7,1.5
				C17.5,34.6,16.8,35.3,15.8,35.3z M22.5,34.2h-3.2v-0.7h3.2V34.2z"/>
		</g>
	</g>
	<g>
		<g>
			<path class="st0" d="M31.6,12.4c0-0.4,0.3-0.6,1-0.6h0.9c0.5,0,0.9,0.1,1,0.5l2.9,5.7l2.9-5.7c0.2-0.4,0.6-0.5,1-0.5h0.9
				c0.7,0,1,0.2,1,0.6V24c0,0.4-0.3,0.6-1,0.6h-0.5c-0.7,0-1-0.2-1-0.6v-7.5l-0.1,0l-2.4,4.7c-0.1,0.2-0.3,0.3-0.7,0.3h-0.5
				c-0.3,0-0.5-0.1-0.7-0.3l-2.4-4.7l-0.1,0V24c0,0.4-0.3,0.6-1,0.6h-0.5c-0.7,0-1-0.2-1-0.6V12.4z"/>
			<path class="st0" d="M49.1,14.9c2.6,0,4,1.7,4,4.9c0,3.2-1.4,4.9-4,4.9c-2.6,0-4-1.7-4-4.9C45.1,16.7,46.4,14.9,49.1,14.9z
				 M50.6,19.8c0-1.8-0.5-2.8-1.5-2.8c-1.1,0-1.5,0.9-1.5,2.8c0,1.8,0.5,2.8,1.5,2.8C50.1,22.6,50.6,21.6,50.6,19.8z"/>
			<path class="st0" d="M54.9,11.5c0-0.4,0.3-0.6,1-0.6h0.5c0.7,0,1,0.2,1,0.6v4c0.3-0.3,0.9-0.6,1.7-0.6c2.2,0,3.5,1.9,3.5,4.9
				c0,3.2-1.3,4.9-3.1,4.9c-1,0-1.8-0.6-2.2-1.4L57,24.1c-0.1,0.4-0.4,0.5-1,0.5h-0.2c-0.7,0-1-0.2-1-0.6V11.5z M58.7,22.5
				c0.9,0,1.3-0.9,1.3-2.7c0-1.8-0.5-2.8-1.5-2.8c-0.5,0-0.9,0.2-1.2,0.3v4.1C57.6,22,58,22.5,58.7,22.5z"/>
			<path class="st1" d="M64.1,12.9v-1.5c0-0.4,0.3-0.6,1-0.6h0.5c0.7,0,1,0.2,1,0.6v1.5c0,0.4-0.3,0.6-1,0.6h-0.5
				C64.4,13.5,64.1,13.3,64.1,12.9z"/>
			<path class="st0" d="M64.1,15.6c0-0.4,0.3-0.6,1-0.6h0.5c0.7,0,1,0.2,1,0.6V24c0,0.4-0.3,0.6-1,0.6h-0.5c-0.7,0-1-0.2-1-0.6V15.6
				z"/>
			<path class="st0" d="M68.6,11.5c0-0.4,0.3-0.6,1-0.6H70c0.7,0,1,0.2,1,0.6v10.4c0,0.5,0.2,0.8,0.6,0.8c0.1,0,0.3-0.1,0.4-0.1
				c0.3,0,0.5,1.2,0.5,1.3c0,0.8-1.1,0.9-1.6,0.9c-1.6,0-2.4-0.9-2.4-2.9V11.5z"/>
			<path class="st0" d="M77.2,14.9c2.6,0,3.6,2.2,3.6,4.7c0,0.3-0.6,1.1-0.8,1.1h-4.2c0.1,1.5,0.8,1.9,1.9,1.9c1,0,1.8-0.6,2-0.6
				c0.4,0,0.9,1,0.9,1.4c0,0.9-2,1.3-3,1.3c-3,0-4.3-1.9-4.3-4.8C73.1,16.3,74.8,14.9,77.2,14.9z M78.3,18.9c0-1.1-0.4-1.8-1.2-1.8
				c-0.7,0-1.3,0.4-1.5,1.8H78.3z"/>
			<path class="st1" d="M86.5,22.4c0.2,0,1.1,0.9,2.8,0.9c1.3,0,2.2-0.9,2.2-2.2c0-3.1-5.4-1.7-5.4-6c0-2,1.5-3.3,3.7-3.3
				c0.9,0,2.7,0.5,2.7,1.1c0,0.3-0.4,1-0.5,1c-0.2,0-0.9-0.7-2.2-0.7c-1.2,0-2.1,0.7-2.1,2c0,2.7,5.4,1.4,5.4,5.9
				c0,2.2-1.4,3.6-3.7,3.6c-1.9,0-3.4-0.8-3.4-1.3C85.9,23.1,86.3,22.4,86.5,22.4z"/>
			<path class="st1" d="M95.3,16.4h-0.8c-0.2,0-0.3-0.2-0.3-0.5v-0.2c0-0.4,0.1-0.5,0.3-0.5h0.8l0.2-1.9c0-0.3,0.2-0.4,0.5-0.4h0.2
				c0.3,0,0.5,0.1,0.5,0.4v1.9h1.4c0.2,0,0.3,0.2,0.3,0.5v0.2c0,0.4-0.1,0.5-0.3,0.5h-1.4V22c0,1.1,0.4,1.3,0.9,1.3
				c0.5,0,0.6-0.1,0.7-0.1c0.2,0,0.3,0.7,0.3,0.9c0,0.5-0.8,0.5-1.2,0.5c-0.8,0-2.1-0.4-2.1-2.5V16.4z"/>
			<path class="st1" d="M100.5,15.4c0-0.3,0.2-0.4,0.7-0.4h0.1c0.5,0,0.7,0.1,0.7,0.4v6.2c0,1.1,0.6,1.8,1.7,1.8
				c0.7,0,1.5-0.5,2.1-1.3v-6.7c0-0.3,0.2-0.4,0.7-0.4h0.1c0.5,0,0.7,0.1,0.7,0.4v6.5c0,1.5,0.2,2.2,0.2,2.3c0,0.3-0.7,0.4-0.9,0.4
				c-0.4,0-0.5-0.8-0.6-1.3c-0.7,0.9-1.7,1.4-2.6,1.4c-1.7,0-2.7-1.1-2.7-2.9V15.4z"/>
			<path class="st1" d="M109.3,19.9v-0.2c0-3.1,1.4-4.8,3.4-4.8c1,0,1.7,0.4,2.4,0.9v-4.6c0-0.3,0.2-0.4,0.7-0.4h0.1
				c0.5,0,0.7,0.1,0.7,0.4v10.6c0,1.5,0.2,2.2,0.2,2.3c0,0.3-0.7,0.4-0.9,0.4c-0.4,0-0.5-0.8-0.6-1.3c-0.8,0.9-1.7,1.4-2.6,1.4
				C110.5,24.7,109.3,22.7,109.3,19.9z M115,22.1v-5c-0.6-0.5-1.3-0.8-2-0.8h-0.1c-1.4,0-2.2,1.2-2.2,3.4c0,2.3,0.7,3.7,2,3.7
				C113.5,23.4,114.3,22.9,115,22.1z"/>
			<path class="st0" d="M119.2,12.4v-1.1c0-0.3,0.2-0.4,0.7-0.4h0.2c0.5,0,0.7,0.1,0.7,0.4v1.1c0,0.3-0.2,0.4-0.7,0.4h-0.2
				C119.4,12.8,119.2,12.6,119.2,12.4z"/>
			<path class="st1" d="M119.3,15.4c0-0.3,0.2-0.4,0.7-0.4h0.1c0.5,0,0.7,0.1,0.7,0.4v8.8c0,0.3-0.2,0.4-0.7,0.4h-0.1
				c-0.5,0-0.7-0.1-0.7-0.4V15.4z"/>
			<path class="st1" d="M126.9,15c2.4,0,3.8,1.7,3.8,4.9c0,3.1-1.3,4.8-3.8,4.8c-2.5,0-3.8-1.7-3.8-4.8C123,16.7,124.4,15,126.9,15z
				 M129.2,19.8c0-2.4-0.7-3.6-2.4-3.6c-1.6,0-2.3,1.1-2.3,3.6c0,2.4,0.7,3.5,2.3,3.5C128.4,23.4,129.2,22.3,129.2,19.8z"/>
		</g>
		<g>
			<path class="st1" d="M37.2,26.5c0.9,0,1.8,0.4,1.8,0.7c0,0.2-0.2,0.6-0.3,0.6c-0.1,0-0.6-0.5-1.5-0.5c-1.5,0-2.2,0.9-2.2,3
				c0,2,0.7,2.9,2.2,2.9c1,0,1.5-0.5,1.6-0.5c0.1,0,0.3,0.4,0.3,0.6c0,0.3-0.9,0.8-2,0.8C35,34,34,32.9,34,30.3
				C34,27.8,35.1,26.5,37.2,26.5z"/>
			<path class="st1" d="M44.1,28.4c1.4,0,2.2,1,2.2,2.8c0,1.8-0.7,2.8-2.2,2.8c-1.4,0-2.2-1-2.2-2.8C41.9,29.4,42.7,28.4,44.1,28.4z
				 M45.4,31.2c0-1.4-0.4-2.1-1.4-2.1c-0.9,0-1.4,0.7-1.4,2.1c0,1.4,0.4,2.1,1.4,2.1C45,33.3,45.4,32.6,45.4,31.2z"/>
			<path class="st1" d="M49.5,30.1c0-0.9-0.1-1.3-0.1-1.3c0-0.2,0.4-0.2,0.5-0.2c0.2,0,0.3,0.4,0.3,0.7c0.3-0.4,0.8-0.8,1.5-0.8
				c0.5,0,1.1,0.2,1.4,0.9c0.4-0.5,0.9-0.9,1.5-0.9c0.6,0,1.5,0.3,1.5,1.7v3.7c0,0.1-0.1,0.2-0.4,0.2h0c-0.3,0-0.4-0.1-0.4-0.2v-3.6
				c0-0.6-0.3-1-0.9-1c-0.6,0-1,0.5-1.2,0.7c0,0.1,0,0.1,0,0.2v3.6c0,0.1-0.1,0.2-0.4,0.2h0c-0.3,0-0.4-0.1-0.4-0.2v-3.6
				c0-0.6-0.3-1-0.9-1c-0.7,0-1.2,0.7-1.2,0.7v3.9c0,0.1-0.1,0.2-0.4,0.2h0c-0.3,0-0.4-0.1-0.4-0.2V30.1z"/>
			<path class="st1" d="M60.4,35.9c0,0.1-0.1,0.2-0.4,0.2h0c-0.3,0-0.4-0.1-0.4-0.2v-5.9c0-0.9-0.1-1.3-0.1-1.3
				c0-0.2,0.4-0.2,0.5-0.2c0.2,0,0.3,0.4,0.3,0.7c0.5-0.5,1-0.8,1.5-0.8c1.1,0,1.9,1.2,1.9,2.8v0.1c0,1.8-0.8,2.8-1.9,2.8
				c-0.6,0-1-0.2-1.4-0.5V35.9z M61.5,33.3L61.5,33.3c0.9,0,1.3-0.7,1.3-2c0-1.4-0.4-2.1-1.2-2.1c-0.4,0-0.9,0.3-1.3,0.7v2.9
				C60.7,33.1,61.1,33.3,61.5,33.3z"/>
			<path class="st1" d="M69.8,30.5V30c0-0.5-0.3-0.9-1.1-0.9c-0.9,0-1.4,0.4-1.5,0.4c-0.1,0-0.3-0.4-0.3-0.5c0-0.3,0.8-0.7,1.8-0.7
				c1.2,0,1.9,0.6,1.9,1.7v2.4c0,0.9,0.1,1.3,0.1,1.3c0,0.2-0.4,0.2-0.5,0.2c-0.2,0-0.3-0.4-0.3-0.7C69.5,33.7,69,34,68.3,34
				c-0.9,0-1.6-0.5-1.6-1.6C66.6,30.7,68.3,30.6,69.8,30.5z M68.3,33.3c0.7,0,1.1-0.3,1.5-0.7v-1.2c-1,0-2.3,0-2.3,1.1
				C67.5,33,67.8,33.3,68.3,33.3z"/>
			<path class="st1" d="M74.1,30.1c0-0.9-0.1-1.3-0.1-1.3c0-0.2,0.4-0.2,0.5-0.2c0.2,0,0.3,0.4,0.3,0.7c0.4-0.5,1-0.8,1.5-0.8
				c1,0,1.6,0.6,1.6,1.7v3.7c0,0.1-0.1,0.2-0.4,0.2h0c-0.3,0-0.4-0.1-0.4-0.2v-3.6c0-0.6-0.4-1-1-1c-0.4,0-0.9,0.3-1.2,0.7v3.9
				c0,0.1-0.1,0.2-0.4,0.2h0c-0.3,0-0.4-0.1-0.4-0.2V30.1z"/>
			<path class="st1" d="M80.7,28.8c0,0,0-0.1,0-0.1c0-0.1,0.1-0.2,0.4-0.2h0.1c0.2,0,0.3,0,0.4,0.2l1.3,3.8l1.3-3.8
				c0-0.1,0.2-0.2,0.4-0.2c0.3,0,0.4,0.1,0.4,0.2c0,0,0,0.1,0,0.1l-2.5,7.2c-0.1,0.2-0.2,0.2-0.5,0.2h-0.1c-0.2,0-0.3-0.1-0.3-0.2
				c0-0.1,0-0.1,0.9-2.3L80.7,28.8z"/>
			<path class="st0" d="M91.9,32.9c0.1,0,0.5,0.4,1.1,0.4c0.6,0,0.9-0.3,0.9-0.9c0-0.5-0.2-0.8-1-1c-1-0.3-1.3-0.7-1.3-1.4
				c0-0.9,0.6-1.6,1.6-1.6c0.7,0,1.3,0.2,1.3,0.4c0,0.2-0.2,0.6-0.3,0.6c0,0-0.4-0.3-0.9-0.3c-0.5,0-0.8,0.3-0.8,0.7
				c0,0.4,0.2,0.6,0.7,0.7c1.2,0.4,1.5,0.8,1.5,1.8c0,0.9-0.7,1.7-1.7,1.7c-0.9,0-1.6-0.4-1.6-0.6C91.6,33.3,91.8,32.9,91.9,32.9z"
				/>
			<path class="st0" d="M97.9,26.3c0-0.1,0.1-0.2,0.4-0.2h0c0.3,0,0.4,0.1,0.4,0.2v6.2c0,0.6,0.2,0.8,0.5,0.8c0.3,0,0.3-0.1,0.4-0.1
				c0.1,0,0.2,0.4,0.2,0.5c0,0.3-0.4,0.3-0.7,0.3c-0.5,0-1.2-0.2-1.2-1.5V26.3z"/>
			<path class="st0" d="M104.6,28.4c1.4,0,2.2,1,2.2,2.8c0,1.8-0.7,2.8-2.2,2.8c-1.4,0-2.2-1-2.2-2.8
				C102.4,29.4,103.2,28.4,104.6,28.4z M106,31.2c0-1.4-0.4-2.1-1.4-2.1c-0.9,0-1.4,0.7-1.4,2.1c0,1.4,0.4,2.1,1.4,2.1
				C105.5,33.3,106,32.6,106,31.2z"/>
			<path class="st0" d="M110.7,33.5c-0.4-0.2-0.6-0.4-0.6-0.9c0-0.5,0.4-0.8,0.7-0.9c-0.6-0.3-0.9-0.9-0.9-1.6c0-1,0.7-1.8,1.9-1.8
				c0.2,0,0.4,0,0.6,0.1h1.6c0.1,0,0.2,0.1,0.2,0.3v0.1c0,0.2-0.1,0.3-0.2,0.3h-0.7c0.2,0.3,0.3,0.6,0.3,1c0,1-0.7,1.8-1.9,1.8h-0.1
				c-0.2,0-0.8,0.1-0.8,0.4c0,0.8,3.2,0,3.2,2.1c0,0.9-0.9,1.7-2.4,1.7c-1.3,0-2.2-0.3-2.2-1.4C109.6,34.2,110,33.8,110.7,33.5z
				 M111.9,35.4c0.9,0,1.4-0.4,1.4-0.8c0-0.6-1-0.7-1.9-0.9c-0.4,0.2-1,0.5-1,1C110.4,35.3,111.1,35.4,111.9,35.4z M112.9,30.2
				c0-0.8-0.5-1.1-1.1-1.1c-0.6,0-1.1,0.3-1.1,1.1c0,0.8,0.5,1.1,1.1,1.1C112.4,31.3,112.9,31,112.9,30.2z"/>
			<path class="st0" d="M120,30.5V30c0-0.5-0.3-0.9-1.1-0.9c-0.9,0-1.4,0.4-1.5,0.4c-0.1,0-0.3-0.4-0.3-0.5c0-0.3,0.8-0.7,1.8-0.7
				c1.2,0,1.9,0.6,1.9,1.7v2.4c0,0.9,0.1,1.3,0.1,1.3c0,0.2-0.4,0.2-0.5,0.2c-0.2,0-0.3-0.4-0.3-0.7c-0.4,0.4-0.9,0.8-1.6,0.8
				c-0.9,0-1.6-0.5-1.6-1.6C116.9,30.7,118.6,30.6,120,30.5z M118.5,33.3c0.7,0,1.1-0.3,1.5-0.7v-1.2c-1,0-2.3,0-2.3,1.1
				C117.7,33,118,33.3,118.5,33.3z"/>
			<path class="st0" d="M124.4,30.1c0-0.9-0.1-1.3-0.1-1.3c0-0.2,0.4-0.2,0.5-0.2c0.2,0,0.3,0.4,0.3,0.7c0.4-0.5,1-0.8,1.5-0.8
				c1,0,1.6,0.6,1.6,1.7v3.7c0,0.1-0.1,0.2-0.4,0.2h0c-0.3,0-0.4-0.1-0.4-0.2v-3.6c0-0.6-0.4-1-1-1c-0.4,0-0.9,0.3-1.2,0.7v3.9
				c0,0.1-0.1,0.2-0.4,0.2h0c-0.3,0-0.4-0.1-0.4-0.2V30.1z"/>
		</g>
	</g>
</g>
</svg>
